<svg width="60" height="60" viewBox="0 0 60 60" fill="none" xmlns="http://www.w3.org/2000/svg">
<path d="M29.9997 0L32.6966 4.34134L36.2371 0.655573L37.9724 5.46274L42.2018 2.59364L42.8997 7.65654L47.6333 5.72949L47.2633 10.8269L52.2941 9.92608L50.8724 14.8351L55.9805 15L53.5692 19.5062L58.5314 20.7295L55.2359 24.6359L59.8354 26.8641L55.7997 30L59.8354 33.1359L55.2359 35.3641L58.5314 39.2705L53.5692 40.4938L55.9805 45L50.8724 45.1649L52.2941 50.0739L47.2633 49.1731L47.6333 54.2705L42.8997 52.3435L42.2018 57.4064L37.9724 54.5373L36.2371 59.3444L32.6966 55.6587L29.9997 60L27.3029 55.6587L23.7624 59.3444L22.0271 54.5373L17.7976 57.4064L17.0997 52.3435L12.3662 54.2705L12.7361 49.1731L7.70538 50.0739L9.12708 45.1649L4.01896 45L6.43025 40.4938L1.46802 39.2705L4.76351 35.3641L0.164062 33.1359L4.19972 30L0.164062 26.8641L4.76351 24.6359L1.46802 20.7295L6.43025 19.5062L4.01896 15L9.12708 14.8351L7.70538 9.92608L12.7361 10.8269L12.3662 5.72949L17.0997 7.65654L17.7976 2.59364L22.0271 5.46274L23.7624 0.655573L27.3029 4.34134L29.9997 0Z" fill="#40A6E3"/>
<path d="M29.9997 0L32.6966 4.34134L36.2371 0.655573L37.9724 5.46274L42.2018 2.59364L42.8997 7.65654L47.6333 5.72949L47.2633 10.8269L52.2941 9.92608L50.8724 14.8351L55.9805 15L53.5692 19.5062L58.5314 20.7295L55.2359 24.6359L59.8354 26.8641L55.7997 30L59.8354 33.1359L55.2359 35.3641L58.5314 39.2705L53.5692 40.4938L55.9805 45L50.8724 45.1649L52.2941 50.0739L47.2633 49.1731L47.6333 54.2705L42.8997 52.3435L42.2018 57.4064L37.9724 54.5373L36.2371 59.3444L32.6966 55.6587L29.9997 60L27.3029 55.6587L23.7624 59.3444L22.0271 54.5373L17.7976 57.4064L17.0997 52.3435L12.3662 54.2705L12.7361 49.1731L7.70538 50.0739L9.12708 45.1649L4.01896 45L6.43025 40.4938L1.46802 39.2705L4.76351 35.3641L0.164062 33.1359L4.19972 30L0.164062 26.8641L4.76351 24.6359L1.46802 20.7295L6.43025 19.5062L4.01896 15L9.12708 14.8351L7.70538 9.92608L12.7361 10.8269L12.3662 5.72949L17.0997 7.65654L17.7976 2.59364L22.0271 5.46274L23.7624 0.655573L27.3029 4.34134L29.9997 0Z" fill="url(#paint0_radial_127_1113)" fill-opacity="0.4"/>
<path fill-rule="evenodd" clip-rule="evenodd" d="M47.3155 18.0924C48.369 19.3711 48.1864 21.2618 46.9077 22.3154L25.0598 40.3154C23.9442 41.2345 22.3317 41.2274 21.2242 40.2984L13.072 33.4598C11.8027 32.395 11.6368 30.5028 12.7017 29.2334C13.7665 27.964 15.6587 27.7982 16.9281 28.863L23.1695 34.0987L43.0925 17.6846C44.3712 16.631 46.2619 16.8136 47.3155 18.0924Z" fill="white"/>
<defs>
<radialGradient id="paint0_radial_127_1113" cx="0" cy="0" r="1" gradientUnits="userSpaceOnUse" gradientTransform="translate(-0.00027992 12) rotate(28.8557) scale(55.9464)">
<stop stop-color="#FFFCFC"/>
<stop offset="1" stop-color="#FFFCFC" stop-opacity="0"/>
</radialGradient>
</defs>
</svg>
