<svg width="37" height="29" viewBox="0 0 37 29" fill="none" xmlns="http://www.w3.org/2000/svg">
<path d="M30.3011 28.3542H6.9216C5.14031 28.3542 3.58168 27.0553 3.58168 25.3235L2.02305 11.6855C2.02305 11.2525 2.24571 10.8196 2.69103 10.6031C3.13636 10.3866 3.80434 10.6031 4.027 11.0361C6.03096 13.8502 8.92556 17.0974 10.0389 17.0974C11.3748 17.0974 14.9374 10.8196 17.3867 4.1088C17.6094 3.24289 19.168 3.24289 19.3907 4.1088C21.8399 11.036 25.4025 17.0974 26.7385 17.0974C27.8518 17.0974 30.7464 14.0667 32.973 11.0361C33.1957 10.6031 33.8637 10.3866 34.309 10.6031C34.7543 10.8196 34.977 11.2525 34.977 11.6855L33.641 25.3235C33.4183 27.0553 31.8597 28.3542 30.3011 28.3542ZM4.47233 15.3656L5.58563 25.107C5.58563 25.7565 6.25362 26.1894 6.69894 26.1894H30.0784C30.7464 26.1894 31.1917 25.7565 31.1917 25.107L32.305 15.3656C30.7464 17.3139 28.5198 19.2622 26.7385 19.2622C23.6212 19.0457 20.0586 11.902 18.2773 7.35595C16.4961 11.902 12.9335 18.8292 10.0389 19.2622C8.48024 19.2622 6.25362 17.3139 4.47233 15.3656Z" fill="white"/>
<path d="M2.91375 13.8507C4.14348 13.8507 5.14037 12.8815 5.14037 11.6859C5.14037 10.4903 4.14348 9.52113 2.91375 9.52113C1.68402 9.52113 0.687134 10.4903 0.687134 11.6859C0.687134 12.8815 1.68402 13.8507 2.91375 13.8507Z" fill="white"/>
<path d="M18.5001 4.97504C19.7298 4.97504 20.7267 4.00584 20.7267 2.81027C20.7267 1.61471 19.7298 0.645508 18.5001 0.645508C17.2704 0.645508 16.2735 1.61471 16.2735 2.81027C16.2735 4.00584 17.2704 4.97504 18.5001 4.97504Z" fill="white"/>
<path d="M34.0865 13.8507C35.3162 13.8507 36.3131 12.8815 36.3131 11.6859C36.3131 10.4903 35.3162 9.52113 34.0865 9.52113C32.8567 9.52113 31.8599 10.4903 31.8599 11.6859C31.8599 12.8815 32.8567 13.8507 34.0865 13.8507Z" fill="white"/>
<path d="M18.5001 23.3755C19.7298 23.3755 20.7267 22.4063 20.7267 21.2107C20.7267 20.0151 19.7298 19.0459 18.5001 19.0459C17.2704 19.0459 16.2735 20.0151 16.2735 21.2107C16.2735 22.4063 17.2704 23.3755 18.5001 23.3755Z" fill="white"/>
</svg>
