<svg width="100" height="134" viewBox="0 0 100 134" fill="none" xmlns="http://www.w3.org/2000/svg">
<path d="M0 16.9803C0 13.8526 2.17448 11.1453 5.22864 10.4706L48.1825 0.98195C49.1226 0.77428 50.0965 0.772689 51.0373 0.977285L94.7501 10.4839C97.8144 11.1503 100 13.8623 100 16.9983V77.7326C100 106.371 78.6037 130.499 50.1718 133.932V133.932C49.7983 133.977 49.4206 133.977 49.0472 133.931V133.931C21.0434 130.496 0 106.714 0 78.5004V16.9803Z" fill="#9D9D9D"/>
<path d="M0 16.9803C0 13.8526 2.17448 11.1453 5.22864 10.4706L48.1825 0.98195C49.1226 0.77428 50.0965 0.772689 51.0373 0.977285L94.7501 10.4839C97.8144 11.1503 100 13.8623 100 16.9983V77.7326C100 106.371 78.6037 130.499 50.1718 133.932V133.932C49.7983 133.977 49.4206 133.977 49.0472 133.931V133.931C21.0434 130.496 0 106.714 0 78.5004V16.9803Z" fill="url(#paint0_linear_708_1648)"/>
<path d="M3.33337 17.0229C3.33337 15.4622 4.41628 14.1104 5.93937 13.7699L48.6251 4.22591C49.2906 4.07711 49.9806 4.07597 50.6466 4.22257L94.05 13.7766C95.5782 14.113 96.6667 15.4671 96.6667 17.032V77.7726C96.6667 104.673 76.6038 127.35 49.9048 130.634V130.634C49.7259 130.656 49.545 130.655 49.3662 130.633V130.633C23.0688 127.348 3.33337 104.994 3.33337 78.4926V17.0229Z" fill="#4F4745"/>
<path d="M3.33337 17.0229C3.33337 15.4622 4.41628 14.1104 5.93937 13.7699L48.6251 4.22591C49.2906 4.07711 49.9806 4.07597 50.6466 4.22257L94.05 13.7766C95.5782 14.113 96.6667 15.4671 96.6667 17.032V77.7726C96.6667 104.673 76.6038 127.35 49.9048 130.634V130.634C49.7259 130.656 49.545 130.655 49.3662 130.633V130.633C23.0688 127.348 3.33337 104.994 3.33337 78.4926V17.0229Z" fill="url(#paint1_linear_708_1648)" fill-opacity="0.3"/>
<path d="M96.3334 17.032V77.7726C96.3334 104.504 76.396 127.04 49.8641 130.303C49.7125 130.321 49.5591 130.321 49.4075 130.302C23.2769 127.038 3.66671 104.826 3.66671 78.4926V17.0229C3.66671 15.6183 4.64132 14.4017 6.01211 14.0952L48.6978 4.55121C49.3158 4.41304 49.9565 4.41198 50.5749 4.54811L93.9783 14.1021C95.3537 14.4049 96.3334 15.6236 96.3334 17.032Z" stroke="white" stroke-opacity="0.1" stroke-width="0.666667"/>
<defs>
<linearGradient id="paint0_linear_708_1648" x1="50" y1="0.666748" x2="50" y2="134" gradientUnits="userSpaceOnUse">
<stop stop-color="#C6C6C6"/>
<stop offset="1" stop-color="#737578" stop-opacity="0"/>
</linearGradient>
<linearGradient id="paint1_linear_708_1648" x1="50" y1="4" x2="50" y2="130.667" gradientUnits="userSpaceOnUse">
<stop stop-color="#C6C6C6"/>
<stop offset="1" stop-color="#737578" stop-opacity="0"/>
</linearGradient>
</defs>
</svg>
