<svg width="48" height="48" viewBox="0 0 48 48" fill="none" xmlns="http://www.w3.org/2000/svg">
<g clip-path="url(#clip0_605_1065)">
<path d="M30.1564 31.6845C29.8998 31.6845 29.8998 31.6845 29.6433 31.6845L24 29.4239L18.3568 31.6845C17.8437 31.9356 17.0742 31.6845 16.8177 30.931L14.2526 25.6564L8.86578 23.1447C8.35275 22.8935 7.83973 22.14 8.09624 21.6377L10.1483 16.112L8.09624 10.5863C7.83973 10.0839 8.09624 9.33041 8.86578 9.07925L14.2526 6.56756L16.8177 1.29301C17.0742 0.790668 17.8437 0.288332 18.3568 0.539501L24 2.54885L29.6433 0.539501C30.1564 0.288332 30.9259 0.539499 31.1824 1.29301L33.7475 6.56756L39.1343 9.07925C39.6473 9.33041 40.1604 10.0839 39.9039 10.5863L37.8517 16.112L39.9039 21.6377C40.1604 22.14 39.9039 22.8935 39.1343 23.1447L33.7475 25.6564L31.1824 30.931C30.9259 31.4333 30.4129 31.6845 30.1564 31.6845ZM24 26.9122C24.2566 26.9122 24.2566 26.9122 24.5131 26.9122L29.3868 28.6704L31.6954 24.1494C31.6954 23.8982 31.952 23.647 32.2085 23.647L37.0822 21.3865L35.2866 16.6143C35.2866 16.3631 35.2866 16.112 35.2866 15.8608L37.0822 11.0886L32.2085 8.82808C31.952 8.82808 31.6954 8.57691 31.6954 8.32574L29.3868 3.55353L24.5131 5.31171C24.2566 5.31171 24 5.31171 23.7435 5.31171L18.8698 3.55353L16.3047 8.07457C16.3047 8.32574 16.0481 8.57691 15.7916 8.57691L10.9179 10.8374L12.7135 15.6096C12.7135 15.8608 12.7135 16.112 12.7135 16.3631L10.9179 21.1354L15.7916 23.3959C16.0481 23.3959 16.3047 23.6471 16.3047 23.8982L18.6133 28.6704L23.487 26.9122C23.7435 26.9122 23.7435 26.9122 24 26.9122Z" fill="white"/>
<path d="M16.6076 24.9671L11.038 40.2932L15.8481 39.5269C16.3544 39.5269 16.8608 39.5269 17.1139 40.0378L20.1519 43.8693L25.7215 28.5432L28 29.3095L21.6709 46.6791C21.4177 47.1899 21.1646 47.4454 20.6582 47.4454H20.4051C19.8987 47.4454 19.6456 47.1899 19.3924 46.9345L15.5949 42.0812L9.51899 43.103C9.01266 43.103 8.50633 43.103 8.25316 42.5921C8 42.3367 8 41.8258 8 41.3149L14.3291 23.9454L16.6076 24.9671Z" fill="white"/>
<path d="M33.6229 24.9245L39.9 41.5704C40.1415 42.0599 39.9 42.5495 39.6586 42.7943C39.4172 43.0391 38.9343 43.2839 38.4515 43.2839L32.6572 42.3047L29.0358 46.9558C28.7943 47.2006 28.5529 47.4454 28.07 47.4454H27.8286C27.3458 47.4454 27.1043 47.2006 26.8629 46.711L23 36.4297L25.1729 35.4506L28.07 43.5287L30.9672 39.8568C31.2086 39.612 31.6915 39.3672 32.1743 39.3672L36.7615 40.1016L31.45 25.4141L33.6229 24.9245Z" fill="white"/>
<path d="M23.832 21.6255C22.584 21.6255 21.51 21.5475 20.61 21.3915C19.71 21.2235 19.08 21.0615 18.72 20.9055L19.08 19.1595V18.7995C19.26 18.9915 19.548 19.1955 19.944 19.4115C20.352 19.6275 20.856 19.8135 21.456 19.9695C22.056 20.1135 22.74 20.1855 23.508 20.1855C24.54 20.1855 25.272 20.0115 25.704 19.6635C26.136 19.3035 26.352 18.7755 26.352 18.0795C26.352 17.4195 26.1 16.9215 25.596 16.5855C25.104 16.2495 24.342 16.0815 23.31 16.0815C22.29 16.0815 21.45 16.1235 20.79 16.2075C20.13 16.2795 19.68 16.3575 19.44 16.4415V10.6455H27.396V11.0055L27.756 12.4455C27.624 12.3615 27.264 12.2835 26.676 12.2115C26.088 12.1275 25.26 12.0855 24.192 12.0855H21.456V14.1735C21.456 14.4375 21.486 14.5935 21.546 14.6415C21.606 14.6895 21.816 14.7135 22.176 14.7135H23.832C25.404 14.7135 26.55 14.9955 27.27 15.5595C28.002 16.1115 28.368 16.9995 28.368 18.2235C28.368 19.2195 28.002 20.0355 27.27 20.6715C26.55 21.3075 25.404 21.6255 23.832 21.6255Z" fill="white"/>
</g>
<defs>
<clipPath id="clip0_605_1065">
<rect width="48" height="47" fill="white" transform="translate(0 0.445312)"/>
</clipPath>
</defs>
</svg>
