<svg width="49" height="48" viewBox="0 0 49 48" fill="none" xmlns="http://www.w3.org/2000/svg">
<path d="M27.5481 43.8308C25.3058 43.8308 23.9044 42.9965 23.6241 42.9965C23.3438 42.9965 23.3438 42.7184 23.0635 42.4403C23.0635 42.1622 21.9423 40.7717 22.2226 38.2687C19.4197 37.9906 16.8971 36.322 14.3744 34.0971C11.8518 31.5942 10.4503 29.0912 10.1701 26.3102C7.64743 26.3102 5.96568 25.4758 5.96568 25.4758C5.68539 25.4758 5.68539 25.1977 5.4051 24.9196C5.12481 24.6415 1.48101 18.5232 10.1701 9.9019C13.8138 6.28652 17.7379 5.7303 20.8211 8.23326C21.3817 7.67705 21.662 7.39894 21.9423 7.39894C29.2299 1.55871 35.3963 0.446289 39.3204 0.446289C43.8051 0.446289 46.3277 2.11492 46.3277 2.11492C46.3277 2.11492 46.801 2.54626 46.8883 2.67114C47.1686 2.94924 52.7744 12.683 41.2824 26.8664C41.0021 27.1445 40.7219 27.4226 40.4416 27.9788C42.9642 31.3161 42.4036 34.9314 38.7598 38.5468C33.9949 42.7184 30.0708 43.8308 27.5481 43.8308ZM25.3058 40.4936C25.5861 40.7717 26.427 40.7717 27.5481 40.7717C29.5102 40.7717 32.8737 39.9374 36.7978 36.0439C40.4416 32.4285 39.0401 29.9255 37.6386 28.535C36.7978 27.7007 37.3584 26.5883 38.4795 25.7539C38.7598 25.4758 39.0401 25.1977 39.0401 25.1977C39.0401 25.1977 39.0401 24.9196 39.3204 24.9196C48.57 13.5173 45.7671 5.7303 44.9262 4.06167C44.3656 3.78356 42.4036 2.94924 39.6007 2.94924C36.2372 2.94924 30.6313 4.06167 23.9043 9.62379C23.9043 9.62379 23.6241 9.62379 23.6241 9.9019C23.3438 9.9019 23.0635 10.18 23.0635 10.4581C21.9423 11.2924 21.662 11.5705 21.1014 11.5705C20.8211 11.5705 20.2606 11.2924 19.9803 11.2924C17.7379 9.06758 15.2153 9.34568 12.4124 12.1267C6.52626 17.967 7.36714 22.1386 7.92772 23.251C8.48831 23.5291 9.88976 23.8072 11.5715 23.5291C11.8518 23.5291 12.4124 23.5291 12.6927 23.8072C12.973 24.0853 13.2533 24.3634 13.2533 24.9196C13.2533 27.4226 14.3744 29.9255 16.8971 32.1504C19.1394 34.3752 21.662 35.7658 24.1846 35.7658C24.4649 35.7658 25.0255 36.0439 25.3058 36.322C25.5861 36.6001 25.5861 37.1563 25.5861 37.4344C24.7452 38.8249 25.0255 39.9374 25.3058 40.4936Z" fill="white"/>
<path d="M3.72329 45.7775C3.44299 45.7775 2.88241 45.7775 2.60212 45.4994C2.04153 44.9432 2.04153 44.1089 2.60212 43.5527L9.60941 36.6C10.17 36.0438 11.0109 36.0438 11.5715 36.6C12.132 37.1562 12.132 37.9905 11.5715 38.5468L4.84445 45.2213C4.56416 45.4994 4.28387 45.7775 3.72329 45.7775Z" fill="white"/>
<path d="M2.0416 36.8781C1.76131 36.8781 1.20073 36.8781 0.920438 36.6C0.359854 36.0438 0.359854 35.2094 0.920438 34.6532L4.56423 31.0378C5.12481 30.4816 5.96569 30.4816 6.52627 31.0378C7.08686 31.5941 7.08686 32.4284 6.52627 32.9846L2.88248 36.6C2.88248 36.8781 2.3219 36.8781 2.0416 36.8781Z" fill="white"/>
<path d="M12.6929 47.4462C12.4126 47.4462 11.852 47.4462 11.5717 47.1681C11.0111 46.6119 11.0111 45.7776 11.5717 45.2214L15.2155 41.606C15.7761 41.0498 16.6169 41.0498 17.1775 41.606C17.7381 42.1622 17.7381 42.9965 17.1775 43.5527L13.5337 47.1681C13.2534 47.4462 12.9731 47.4462 12.6929 47.4462Z" fill="white"/>
<path d="M30.351 24.3635C28.6693 24.3635 26.9875 23.8073 25.8664 22.4168C23.3437 19.9138 23.3437 16.0203 25.8664 13.5174C28.389 11.0144 32.5934 11.0144 34.8357 13.5174C35.9569 14.6298 36.7977 16.2984 36.7977 17.9671C36.7977 19.6357 36.2372 21.3043 34.8357 22.4168C33.7145 23.5292 32.0328 24.3635 30.351 24.3635ZM30.351 14.3517C29.5102 14.3517 28.389 14.6298 27.8284 15.4641C26.427 16.8546 26.427 19.0795 27.8284 20.47C29.2299 21.8605 31.4722 21.8605 32.8737 20.47C33.4342 19.9138 33.9948 18.8014 33.9948 17.9671C33.9948 17.1327 33.7145 16.0203 32.8737 15.4641C32.0328 14.9079 31.4722 14.3517 30.351 14.3517Z" fill="white"/>
</svg>
