<svg width="14" height="13" viewBox="0 0 14 13" fill="none" xmlns="http://www.w3.org/2000/svg">
<path fill-rule="evenodd" clip-rule="evenodd" d="M7.02617 12.5879H7.02359C5.98195 12.5875 4.95843 12.3274 4.04936 11.834L0.75 12.6953L1.63297 9.48561C1.08831 8.54623 0.801714 7.48068 0.802181 6.389C0.803546 2.97383 3.59557 0.195312 7.02611 0.195312C8.69107 0.196028 10.2537 0.841087 11.4288 2.0119C12.6039 3.18265 13.2507 4.73886 13.25 6.39388C13.2486 9.80828 10.4577 12.5865 7.02617 12.5879ZM4.20236 10.7126L4.39125 10.8242C5.1855 11.2932 6.09594 11.5414 7.0242 11.5418H7.02629C9.87751 11.5418 12.1981 9.23224 12.1993 6.3935C12.1998 5.01786 11.6622 3.7244 10.6856 2.75127C9.70889 1.77814 8.41005 1.24196 7.02833 1.24148C4.17491 1.24148 1.85427 3.5508 1.85314 6.38933C1.85274 7.36211 2.12623 8.30949 2.64406 9.12916L2.76706 9.32395L2.24447 11.2237L4.20236 10.7126ZM9.9486 7.72748C10.0571 7.77965 10.1303 7.81487 10.1616 7.86683C10.2004 7.93136 10.2004 8.24124 10.0709 8.60282C9.94127 8.96433 9.32 9.29429 9.02119 9.3387C8.75327 9.37857 8.41422 9.3952 8.0417 9.27737C7.81582 9.20606 7.52617 9.11083 7.15515 8.95136C5.69723 8.32485 4.71199 6.91859 4.52578 6.65281C4.51274 6.63419 4.50361 6.62117 4.49852 6.6144L4.49727 6.61274C4.41497 6.50346 3.86352 5.77122 3.86352 5.01338C3.86352 4.30047 4.2154 3.9268 4.37737 3.7548C4.38846 3.74302 4.39867 3.73218 4.40781 3.72224C4.55035 3.5673 4.71884 3.52856 4.82251 3.52856C4.92617 3.52856 5.02996 3.52951 5.12057 3.53404C5.13175 3.5346 5.14338 3.53453 5.1554 3.53446C5.24602 3.53393 5.35901 3.53327 5.47046 3.79972C5.51334 3.90226 5.57609 4.05428 5.64226 4.21462C5.77608 4.53884 5.92393 4.89706 5.94994 4.94889C5.98882 5.02637 6.01474 5.11671 5.9629 5.22005C5.95512 5.23555 5.94792 5.25017 5.94105 5.26414C5.90211 5.34324 5.87347 5.40143 5.80739 5.47822C5.78141 5.50841 5.75455 5.54096 5.7277 5.57351C5.6742 5.63836 5.6207 5.70319 5.57412 5.74938C5.49627 5.82655 5.41522 5.91029 5.50594 6.06523C5.59665 6.22018 5.90876 6.72698 6.37107 7.13738C6.86803 7.57853 7.29996 7.76499 7.51889 7.8595C7.56165 7.87796 7.59628 7.89291 7.62169 7.90556C7.77714 7.98306 7.86786 7.97009 7.95858 7.86683C8.0493 7.76354 8.34733 7.41489 8.45099 7.25997C8.55465 7.10508 8.65836 7.13088 8.80088 7.18251C8.94346 7.23421 9.70803 7.60858 9.86355 7.68604C9.8939 7.70117 9.92229 7.71482 9.9486 7.72748Z" fill="#FDFDFD"/>
</svg>
