<svg width="10" height="10" viewBox="0 0 10 10" fill="none" xmlns="http://www.w3.org/2000/svg">
<path fill-rule="evenodd" clip-rule="evenodd" d="M8.41935 2.83037C8.49746 2.9085 8.54134 3.01447 8.54134 3.12495C8.54134 3.23544 8.49746 3.3414 8.41935 3.41953L4.46101 7.37787C4.38288 7.45598 4.27691 7.49986 4.16643 7.49986C4.05594 7.49986 3.94998 7.45598 3.87185 7.37787L1.99685 5.50287C1.92095 5.42428 1.87895 5.31903 1.8799 5.20978C1.88085 5.10054 1.92467 4.99603 2.00192 4.91878C2.07918 4.84152 2.18368 4.7977 2.29293 4.79675C2.40218 4.7958 2.50743 4.8378 2.58601 4.9137L4.16643 6.49412L7.83018 2.83037C7.90832 2.75226 8.01428 2.70837 8.12476 2.70837C8.23525 2.70837 8.34121 2.75226 8.41935 2.83037Z" fill="black"/>
</svg>
